<svg xmlns="http://www.w3.org/2000/svg" xmlns:xlink="http://www.w3.org/1999/xlink" version="1.1" id="fullscreen_icon" x="0px" y="0px" width="30px" height="30px" viewBox="0 0 100 99.999" enable-background="new 0 0 100 99.999" xml:space="preserve">
	<polygon fill="#dddddd" points="58.008,28.127 62.516,32.639 51.636,43.52 55.771,47.653 66.651,36.772 71,41.122 71,28.127 "/>
	<polygon fill="#dddddd" points="41.118,28.127 28.126,28.127 28.126,41.122 32.616,36.626 43.559,47.57 47.694,43.44 36.751,32.497   "/>
	<polygon fill="#dddddd" points="43.356,51.517 32.49,62.376 28.126,58.012 28.126,71.001 41.118,71.001 36.624,66.511 47.49,55.651   "/>
	<polygon fill="#dddddd" points="55.566,51.595 51.432,55.729 62.354,66.651 58.008,71.001 71,71.001 71,58.012 66.488,62.523 "/>
</svg>